<svg width="25" height="24" viewBox="0 0 25 24" fill="none" xmlns="http://www.w3.org/2000/svg">
<rect x="0.5" width="24" height="24" fill="white"/>
<path d="M9.5 23C10.0523 23 10.5 22.5523 10.5 22C10.5 21.4477 10.0523 21 9.5 21C8.94772 21 8.5 21.4477 8.5 22C8.5 22.5523 8.94772 23 9.5 23Z" stroke="#333333" stroke-width="2" stroke-linecap="round" stroke-linejoin="round"/>
<path d="M20.5 23C21.0523 23 21.5 22.5523 21.5 22C21.5 21.4477 21.0523 21 20.5 21C19.9477 21 19.5 21.4477 19.5 22C19.5 22.5523 19.9477 23 20.5 23Z" stroke="#333333" stroke-width="2" stroke-linecap="round" stroke-linejoin="round"/>
<path d="M1.5 1H5.5L8.18 16.175C8.27144 16.6967 8.52191 17.1654 8.88755 17.499C9.25318 17.8326 9.7107 18.0098 10.18 17.9996H19.9C20.3693 18.0098 20.8268 17.8326 21.1925 17.499C21.5581 17.1654 21.8086 16.6967 21.9 16.175L23.5 6.66653H6.5" stroke="#333333" stroke-width="2" stroke-linecap="round" stroke-linejoin="round"/>
</svg>
