<svg width="197" height="34" viewBox="0 0 197 34" fill="none" xmlns="http://www.w3.org/2000/svg">
<path d="M90.4283 26.2869C89.9255 26.2869 89.1714 26.7141 88.92 26.7995C88.3334 26.8849 87.5793 26.6286 87.1603 23.297C86.9089 21.3322 87.1603 19.2819 87.2441 17.2317C87.2441 16.7191 82.0489 17.4879 82.0489 19.1111C81.9651 21.5884 81.6299 24.1513 82.2165 26.5432C82.2165 26.6286 82.2165 26.6286 82.3003 26.7141C79.7865 27.3975 77.2727 26.0307 76.3509 23.297C76.0995 22.5281 76.0157 21.6739 76.0157 20.8196C76.0157 20.5633 76.0995 18.9402 76.2671 18.4276C79.7865 17.7442 83.1382 16.5482 86.2386 14.8397C86.5738 14.6688 87.4117 14.2417 87.3279 13.7291C86.4062 6.46784 79.2837 7.83467 74.3399 10.1412C73.083 10.7392 72.7478 11.0809 72.8316 11.9352C72.9154 12.704 73.7533 12.8749 74.4237 12.704C75.2616 12.4477 75.6806 11.508 76.6861 11.0809C79.9541 9.54321 81.4623 12.106 82.0489 15.0106C80.0378 15.8648 74.4237 16.8899 72.4964 17.2317C71.6585 17.4025 71.4909 18.0005 71.3233 18.5131C71.0719 19.709 70.9043 20.905 70.9043 22.101C70.8205 23.5533 70.653 26.3724 69.396 26.5432C68.1391 26.7995 68.3905 21.1613 68.3905 19.9653C68.4743 17.2317 68.7257 14.6688 68.1391 11.9352C67.2174 7.66382 62.4412 8.26181 59.0056 9.79949C57.1622 7.66382 53.559 8.00552 50.2911 8.94522C49.4531 9.2015 47.3583 9.71407 47.1907 10.8246C46.5203 17.4025 46.0176 24.493 47.1069 31.0709C43.0848 29.5332 39.6493 25.1764 38.7275 20.8196C42.2469 20.307 45.3472 18.9402 44.9283 14.5834C44.1741 7.06583 36.3813 6.38241 29.3426 9.54321C28.5885 9.88492 28.3371 10.3975 28.0857 11.508C27.0802 15.2668 26.4099 22.3573 27.4154 28.2518C27.4992 28.6789 28.5885 29.2769 30.2644 29.2769C31.9402 29.2769 33.1134 28.8497 33.0296 28.2518C31.2699 21.2467 32.2754 13.302 33.1971 10.3121C40.4872 9.62864 39.9844 17.4025 39.9006 18.5131C39.7331 19.6236 38.3086 19.7945 37.8896 18.5985C37.4706 17.4879 33.1971 18.3422 33.2809 20.6487C33.5323 28.9352 41.4089 34.9151 49.2017 33.7191C49.7883 33.6337 53.1401 32.7794 52.9725 31.7543C51.129 25.091 51.2966 17.9151 51.9669 11.0809C57.2459 8.68894 54.8159 24.4075 54.7321 28.4226C54.7321 28.6789 55.4863 29.106 57.4135 29.106C59.1732 29.106 59.9273 28.9352 59.9273 28.1663C60.0111 24.7492 60.0949 20.6487 60.0949 16.8899C60.0949 15.7794 60.1787 12.7894 59.5084 11.508C63.6981 9.45779 63.2791 17.4025 63.1953 18.9402C63.1953 21.6739 62.4412 26.1161 64.6198 28.3372C66.2957 30.0457 70.1502 29.106 72.245 27.1412C72.664 27.6538 73.2506 28.1663 73.9209 28.508C76.4347 29.9603 79.9541 29.2769 82.9706 28.0809C84.2275 29.106 86.3224 29.0206 87.9983 28.5935C88.8362 28.4226 90.3445 27.9101 90.8472 26.9704C91.0986 26.6286 90.931 26.2869 90.4283 26.2869Z" fill="#8B4795"/>
<path d="M25.0692 25.09C24.9854 24.3212 23.8961 24.3212 23.3095 24.4066C22.1364 24.5774 21.7174 25.9443 20.2092 26.6277C19.2874 27.0548 18.1143 27.1403 17.3602 26.884C15.0977 26.1151 14.595 24.2357 14.2598 22.1855C13.8408 19.1955 14.0084 15.2659 15.0139 12.3614C15.2653 11.5925 11.0756 10.5674 10.0701 13.0448C8.31044 17.5724 7.64009 24.7483 11.5784 28.1654C14.7626 30.899 19.7064 29.2759 23.2257 27.0548C23.8961 26.6277 25.153 25.688 25.0692 25.09Z" fill="#8B4795"/>
<path d="M4.79077 7.83437C6.80182 7.23638 7.05321 6.89467 7.05321 6.29668C7.05321 4.84442 7.22079 3.39216 7.97494 2.2816C8.98046 2.19618 10.405 2.53789 11.5781 2.79417C12.9188 3.05045 13.8405 2.70874 14.6784 2.2816C14.7622 2.2816 16.8571 0.91477 16.0191 0.743916C9.98599 -1.13548 2.10938 0.316781 2.10938 7.74894C2.10938 8.34693 2.86352 8.43236 4.79077 7.83437Z" fill="#8B4795"/>
<path d="M7.1374 10.5683C11.9974 9.45771 17.863 8.68886 19.874 13.8145C20.293 14.8396 20.4606 15.9502 20.4606 17.0607C20.4606 18.0004 20.2092 18.7693 18.7847 18.513C18.1982 18.4276 16.6899 17.6587 15.8519 18.1713C15.014 18.6838 15.1816 20.7341 16.0195 20.6487C18.8685 20.4778 25.2368 19.6235 25.6558 15.7793C25.9072 13.3019 25.4882 11.0808 23.142 9.20143C18.9523 5.78434 7.55637 8.26173 0.852866 10.3974C0.0987219 10.6537 -0.236453 11.508 0.182516 11.9351C0.685278 12.3622 1.94218 11.8497 1.85839 11.9351C1.27183 16.121 1.27183 25.0054 1.6908 29.3622C1.6908 29.7039 2.27736 29.8748 3.95323 29.8748C5.62911 29.8748 6.88602 29.4477 6.80222 28.7642C6.63463 23.2969 6.13187 16.2065 7.1374 10.5683Z" fill="#8B4795"/>
<path d="M101.024 14.5466C100.376 14.5466 99.7957 14.4066 99.2837 14.1266C98.7797 13.8466 98.3837 13.4626 98.0957 12.9746C97.8077 12.4866 97.6637 11.9266 97.6637 11.2946C97.6637 10.6626 97.8077 10.1026 98.0957 9.61461C98.3837 9.12661 98.7797 8.74661 99.2837 8.47461C99.7957 8.19461 100.376 8.05461 101.024 8.05461C101.6 8.05461 102.112 8.17061 102.56 8.40261C103.016 8.62661 103.368 8.96261 103.616 9.41061L102.74 9.97461C102.532 9.66261 102.276 9.43461 101.972 9.29061C101.676 9.13861 101.356 9.06261 101.012 9.06261C100.596 9.06261 100.224 9.15461 99.8957 9.33861C99.5677 9.52261 99.3077 9.78261 99.1157 10.1186C98.9237 10.4466 98.8277 10.8386 98.8277 11.2946C98.8277 11.7506 98.9237 12.1466 99.1157 12.4826C99.3077 12.8186 99.5677 13.0786 99.8957 13.2626C100.224 13.4466 100.596 13.5386 101.012 13.5386C101.356 13.5386 101.676 13.4666 101.972 13.3226C102.276 13.1706 102.532 12.9386 102.74 12.6266L103.616 13.1786C103.368 13.6186 103.016 13.9586 102.56 14.1986C102.112 14.4306 101.6 14.5466 101.024 14.5466ZM107.737 14.5466C107.097 14.5466 106.529 14.4066 106.033 14.1266C105.537 13.8466 105.145 13.4626 104.857 12.9746C104.569 12.4786 104.425 11.9186 104.425 11.2946C104.425 10.6626 104.569 10.1026 104.857 9.61461C105.145 9.12661 105.537 8.74661 106.033 8.47461C106.529 8.19461 107.097 8.05461 107.737 8.05461C108.369 8.05461 108.933 8.19461 109.429 8.47461C109.933 8.74661 110.325 9.12661 110.605 9.61461C110.893 10.0946 111.037 10.6546 111.037 11.2946C111.037 11.9266 110.893 12.4866 110.605 12.9746C110.325 13.4626 109.933 13.8466 109.429 14.1266C108.933 14.4066 108.369 14.5466 107.737 14.5466ZM107.737 13.5386C108.145 13.5386 108.509 13.4466 108.829 13.2626C109.157 13.0786 109.413 12.8186 109.597 12.4826C109.781 12.1386 109.873 11.7426 109.873 11.2946C109.873 10.8386 109.781 10.4466 109.597 10.1186C109.413 9.78261 109.157 9.52261 108.829 9.33861C108.509 9.15461 108.145 9.06261 107.737 9.06261C107.329 9.06261 106.965 9.15461 106.645 9.33861C106.325 9.52261 106.069 9.78261 105.877 10.1186C105.685 10.4466 105.589 10.8386 105.589 11.2946C105.589 11.7426 105.685 12.1386 105.877 12.4826C106.069 12.8186 106.325 13.0786 106.645 13.2626C106.965 13.4466 107.329 13.5386 107.737 13.5386ZM114.491 14.5586C115.051 14.5586 115.547 14.4786 115.979 14.3186C116.419 14.1506 116.767 13.9226 117.023 13.6346C117.279 13.3386 117.407 12.9986 117.407 12.6146C117.407 12.1346 117.203 11.7546 116.795 11.4746C116.387 11.1946 115.827 11.0546 115.115 11.0546L115.067 11.3306C115.483 11.3306 115.851 11.2626 116.171 11.1266C116.491 10.9906 116.747 10.8066 116.939 10.5746C117.131 10.3346 117.227 10.0626 117.227 9.75861C117.227 9.39861 117.099 9.08661 116.843 8.82261C116.595 8.55861 116.255 8.35861 115.823 8.22261C115.391 8.07861 114.899 8.01461 114.347 8.03061C113.979 8.03861 113.607 8.09461 113.231 8.19861C112.863 8.29461 112.487 8.43461 112.103 8.61861L112.415 9.51861C112.759 9.35061 113.095 9.22661 113.423 9.14661C113.759 9.06661 114.087 9.02261 114.407 9.01461C114.735 9.01461 115.019 9.05061 115.259 9.12261C115.507 9.19461 115.699 9.29861 115.835 9.43461C115.971 9.57061 116.039 9.73461 116.039 9.92661C116.039 10.1026 115.979 10.2586 115.859 10.3946C115.747 10.5226 115.587 10.6186 115.379 10.6826C115.171 10.7466 114.927 10.7786 114.647 10.7786H113.567V11.6066H114.719C115.191 11.6066 115.559 11.6866 115.823 11.8466C116.087 12.0066 116.219 12.2346 116.219 12.5306C116.219 12.7386 116.147 12.9226 116.003 13.0826C115.859 13.2346 115.651 13.3546 115.379 13.4426C115.115 13.5306 114.799 13.5746 114.431 13.5746C114.031 13.5746 113.635 13.5226 113.243 13.4186C112.851 13.3066 112.503 13.1546 112.199 12.9626L111.851 13.8386C112.211 14.0706 112.619 14.2506 113.075 14.3786C113.539 14.4986 114.011 14.5586 114.491 14.5586ZM123.502 13.9346V9.12261H120.742L120.682 10.3466C120.666 10.7466 120.638 11.1346 120.598 11.5106C120.566 11.8786 120.51 12.2186 120.43 12.5306C120.358 12.8426 120.25 13.0986 120.106 13.2986C119.962 13.4986 119.77 13.6226 119.53 13.6706L118.39 13.4666C118.638 13.4746 118.838 13.3946 118.99 13.2266C119.142 13.0506 119.258 12.8106 119.338 12.5066C119.426 12.2026 119.49 11.8586 119.53 11.4746C119.57 11.0826 119.602 10.6786 119.626 10.2626L119.722 8.11461H124.654V13.9346H123.502ZM118.138 15.9506V13.4666H125.626V15.9506H124.546V14.4746H119.23V15.9506H118.138ZM131.027 14.4746V13.1306L130.967 12.8786V10.5866C130.967 10.0986 130.823 9.72261 130.535 9.45861C130.255 9.18661 129.831 9.05061 129.263 9.05061C128.887 9.05061 128.519 9.11461 128.159 9.24261C127.799 9.36261 127.495 9.52661 127.247 9.73461L126.767 8.87061C127.095 8.60661 127.487 8.40661 127.943 8.27061C128.407 8.12661 128.891 8.05461 129.395 8.05461C130.267 8.05461 130.939 8.26661 131.411 8.69061C131.883 9.11461 132.119 9.76261 132.119 10.6346V14.4746H131.027ZM128.939 14.5466C128.467 14.5466 128.051 14.4666 127.691 14.3066C127.339 14.1466 127.067 13.9266 126.875 13.6466C126.683 13.3586 126.587 13.0346 126.587 12.6746C126.587 12.3306 126.667 12.0186 126.827 11.7386C126.995 11.4586 127.263 11.2346 127.631 11.0666C128.007 10.8986 128.511 10.8146 129.143 10.8146H131.159V11.6426H129.191C128.615 11.6426 128.227 11.7386 128.027 11.9306C127.827 12.1226 127.727 12.3546 127.727 12.6266C127.727 12.9386 127.851 13.1906 128.099 13.3826C128.347 13.5666 128.691 13.6586 129.131 13.6586C129.563 13.6586 129.939 13.5626 130.259 13.3706C130.587 13.1786 130.823 12.8986 130.967 12.5306L131.195 13.3226C131.043 13.6986 130.775 13.9986 130.391 14.2226C130.007 14.4386 129.523 14.5466 128.939 14.5466ZM134.193 14.4746V8.11461H135.345V10.8146H138.969V8.11461H140.121V14.4746H138.969V11.8106H135.345V14.4746H134.193ZM142.361 14.4746V8.11461H143.513V12.7466L147.413 8.11461H148.457V14.4746H147.305V9.84261L143.417 14.4746H142.361ZM153.525 14.5466C152.845 14.5466 152.245 14.4066 151.725 14.1266C151.213 13.8466 150.813 13.4626 150.525 12.9746C150.245 12.4866 150.105 11.9266 150.105 11.2946C150.105 10.6626 150.241 10.1026 150.513 9.61461C150.793 9.12661 151.173 8.74661 151.653 8.47461C152.141 8.19461 152.689 8.05461 153.297 8.05461C153.913 8.05461 154.457 8.19061 154.929 8.46261C155.401 8.73461 155.769 9.11861 156.033 9.61461C156.305 10.1026 156.441 10.6746 156.441 11.3306C156.441 11.3786 156.437 11.4346 156.429 11.4986C156.429 11.5626 156.425 11.6226 156.417 11.6786H151.005V10.8506H155.817L155.349 11.1386C155.357 10.7306 155.273 10.3666 155.097 10.0466C154.921 9.72661 154.677 9.47861 154.365 9.30261C154.061 9.11861 153.705 9.02661 153.297 9.02661C152.897 9.02661 152.541 9.11861 152.229 9.30261C151.917 9.47861 151.673 9.73061 151.497 10.0586C151.321 10.3786 151.233 10.7466 151.233 11.1626V11.3546C151.233 11.7786 151.329 12.1586 151.521 12.4946C151.721 12.8226 151.997 13.0786 152.349 13.2626C152.701 13.4466 153.105 13.5386 153.561 13.5386C153.937 13.5386 154.277 13.4746 154.581 13.3466C154.893 13.2186 155.165 13.0266 155.397 12.7706L156.033 13.5146C155.745 13.8506 155.385 14.1066 154.953 14.2826C154.529 14.4586 154.053 14.5466 153.525 14.5466ZM164.223 14.5466C163.575 14.5466 162.995 14.4066 162.483 14.1266C161.979 13.8466 161.583 13.4626 161.295 12.9746C161.007 12.4866 160.863 11.9266 160.863 11.2946C160.863 10.6626 161.007 10.1026 161.295 9.61461C161.583 9.12661 161.979 8.74661 162.483 8.47461C162.995 8.19461 163.575 8.05461 164.223 8.05461C164.799 8.05461 165.311 8.17061 165.759 8.40261C166.215 8.62661 166.567 8.96261 166.815 9.41061L165.939 9.97461C165.731 9.66261 165.475 9.43461 165.171 9.29061C164.875 9.13861 164.555 9.06261 164.211 9.06261C163.795 9.06261 163.423 9.15461 163.095 9.33861C162.767 9.52261 162.507 9.78261 162.315 10.1186C162.123 10.4466 162.027 10.8386 162.027 11.2946C162.027 11.7506 162.123 12.1466 162.315 12.4826C162.507 12.8186 162.767 13.0786 163.095 13.2626C163.423 13.4466 163.795 13.5386 164.211 13.5386C164.555 13.5386 164.875 13.4666 165.171 13.3226C165.475 13.1706 165.731 12.9386 165.939 12.6266L166.815 13.1786C166.567 13.6186 166.215 13.9586 165.759 14.1986C165.311 14.4306 164.799 14.5466 164.223 14.5466ZM172.206 14.4746V13.1306L172.146 12.8786V10.5866C172.146 10.0986 172.002 9.72261 171.714 9.45861C171.434 9.18661 171.01 9.05061 170.442 9.05061C170.066 9.05061 169.698 9.11461 169.338 9.24261C168.978 9.36261 168.674 9.52661 168.426 9.73461L167.946 8.87061C168.274 8.60661 168.666 8.40661 169.122 8.27061C169.586 8.12661 170.07 8.05461 170.574 8.05461C171.446 8.05461 172.118 8.26661 172.59 8.69061C173.062 9.11461 173.298 9.76261 173.298 10.6346V14.4746H172.206ZM170.118 14.5466C169.646 14.5466 169.23 14.4666 168.87 14.3066C168.518 14.1466 168.246 13.9266 168.054 13.6466C167.862 13.3586 167.766 13.0346 167.766 12.6746C167.766 12.3306 167.846 12.0186 168.006 11.7386C168.174 11.4586 168.442 11.2346 168.81 11.0666C169.186 10.8986 169.69 10.8146 170.322 10.8146H172.338V11.6426H170.37C169.794 11.6426 169.406 11.7386 169.206 11.9306C169.006 12.1226 168.906 12.3546 168.906 12.6266C168.906 12.9386 169.03 13.1906 169.278 13.3826C169.526 13.5666 169.87 13.6586 170.31 13.6586C170.742 13.6586 171.118 13.5626 171.438 13.3706C171.766 13.1786 172.002 12.8986 172.146 12.5306L172.374 13.3226C172.222 13.6986 171.954 13.9986 171.57 14.2226C171.186 14.4386 170.702 14.5466 170.118 14.5466ZM175.373 14.4746V8.11461H176.525V12.7466L180.425 8.11461H181.469V14.4746H180.317V9.84261L176.429 14.4746H175.373ZM178.349 7.28661C177.765 7.28661 177.305 7.14661 176.969 6.86661C176.641 6.57861 176.473 6.16661 176.465 5.63061H177.245C177.253 5.93461 177.353 6.17461 177.545 6.35061C177.745 6.52661 178.009 6.61461 178.337 6.61461C178.665 6.61461 178.929 6.52661 179.129 6.35061C179.329 6.17461 179.433 5.93461 179.441 5.63061H180.245C180.237 6.16661 180.065 6.57861 179.729 6.86661C179.393 7.14661 178.933 7.28661 178.349 7.28661ZM184.965 14.4746V8.82261L185.253 9.12261H182.637V8.11461H188.445V9.12261H185.841L186.117 8.82261V14.4746H184.965ZM193.523 14.4746V13.1306L193.463 12.8786V10.5866C193.463 10.0986 193.319 9.72261 193.031 9.45861C192.751 9.18661 192.327 9.05061 191.759 9.05061C191.383 9.05061 191.015 9.11461 190.655 9.24261C190.295 9.36261 189.991 9.52661 189.743 9.73461L189.263 8.87061C189.591 8.60661 189.983 8.40661 190.439 8.27061C190.903 8.12661 191.387 8.05461 191.891 8.05461C192.763 8.05461 193.435 8.26661 193.907 8.69061C194.379 9.11461 194.615 9.76261 194.615 10.6346V14.4746H193.523ZM191.435 14.5466C190.963 14.5466 190.547 14.4666 190.187 14.3066C189.835 14.1466 189.563 13.9266 189.371 13.6466C189.179 13.3586 189.083 13.0346 189.083 12.6746C189.083 12.3306 189.163 12.0186 189.323 11.7386C189.491 11.4586 189.759 11.2346 190.127 11.0666C190.503 10.8986 191.007 10.8146 191.639 10.8146H193.655V11.6426H191.687C191.111 11.6426 190.723 11.7386 190.523 11.9306C190.323 12.1226 190.223 12.3546 190.223 12.6266C190.223 12.9386 190.347 13.1906 190.595 13.3826C190.843 13.5666 191.187 13.6586 191.627 13.6586C192.059 13.6586 192.435 13.5626 192.755 13.3706C193.083 13.1786 193.319 12.8986 193.463 12.5306L193.691 13.3226C193.539 13.6986 193.271 13.9986 192.887 14.2226C192.503 14.4386 192.019 14.5466 191.435 14.5466Z" fill="#8B4795"/>
</svg>
