<svg width="17" height="25" viewBox="0 0 17 25" fill="none" xmlns="http://www.w3.org/2000/svg">
<path d="M7.26948 17.6093C5.3314 17.4072 3.58393 16.9299 2.08782 15.7597C1.90218 15.6142 1.71052 15.4738 1.54112 15.3112C0.886274 14.6823 0.820292 13.962 1.33846 13.2197C1.78174 12.5845 2.52587 12.4146 3.29932 12.7793C3.44909 12.85 3.59179 12.9382 3.72846 13.033C6.51671 14.9488 10.3471 15.0017 13.1458 13.1192C13.4231 12.9066 13.7195 12.7332 14.063 12.6447C14.7309 12.4732 15.3538 12.7186 15.7123 13.303C16.1218 13.9704 16.1165 14.6218 15.612 15.14C14.838 15.9344 13.9072 16.5091 12.873 16.9102C11.895 17.2894 10.8239 17.4802 9.7637 17.607C9.92368 17.7811 9.99908 17.8667 10.0991 17.9672C11.5387 19.4136 12.9845 20.8539 14.4193 22.3048C14.9082 22.7991 15.0103 23.412 14.7411 23.987C14.4468 24.6154 13.7881 25.0289 13.1421 24.9846C12.7329 24.9563 12.4137 24.7526 12.1301 24.467C11.0438 23.3738 9.93703 22.3008 8.87268 21.187C8.56293 20.8631 8.41395 20.9244 8.1406 21.2056C7.04771 22.3307 5.93702 23.4385 4.81978 24.54C4.31811 25.0346 3.72113 25.1236 3.13934 24.8411C2.52089 24.5413 2.12736 23.91 2.15773 23.2756C2.17868 22.8465 2.38971 22.5187 2.68428 22.2246C4.1089 20.8021 5.52961 19.3759 6.95083 17.951C7.04483 17.8562 7.13254 17.7557 7.26948 17.6093Z" fill="white"/>
<path d="M8.45029 12.6541C4.9928 12.6423 2.15768 9.77605 2.17784 6.31306C2.19774 2.81184 5.03469 -0.00966292 8.52623 2.48731e-05C12.0248 0.00945083 14.833 2.87154 14.8154 6.40915C14.7976 9.86508 11.9429 12.6662 8.45029 12.6541ZM11.5925 6.32144C11.5865 4.60199 10.2171 3.23313 8.50109 3.23156C6.77064 3.22973 5.38895 4.62346 5.40231 6.35862C5.41513 8.07153 6.7963 9.4307 8.51706 9.42441C10.2326 9.41839 11.5983 8.04063 11.5925 6.32144Z" fill="white"/>
</svg>
