<svg width="98" height="29" viewBox="0 0 98 29" fill="none" xmlns="http://www.w3.org/2000/svg">
<path d="M54.5764 2.97271L48.386 16.5766H47.7559V0.00390625H38.9336V28.0009H46.3843C48.3489 28.0009 50.1282 26.8359 50.9437 25.0321L57.1341 11.4282H57.7643V28.0009H66.5495V0.00390625H59.0988C57.1712 0.00390625 55.3919 1.16888 54.5764 2.97271Z" fill="#20AA4D"/>
<path d="M21.5855 3.68771L17.9157 16.5776H17.2856L13.6158 3.68771C12.9856 1.50808 11.021 0.00488281 8.79691 0.00488281H0.0117188V28.0019H8.79691V11.4667H9.42707L14.4684 28.0019H20.7329L25.7742 11.4292H26.4044V28.0019H35.1896V0.00488281H26.4044C24.1803 0.00488281 22.1786 1.50808 21.5855 3.68771Z" fill="#20AA4D"/>
<path d="M70.3672 12.7432V28.0382H79.1524V19.0942H88.6048C92.7194 19.0942 96.1667 16.426 97.4641 12.7432H70.3672Z" fill="#20AA4D"/>
<path d="M88.5683 0.00390625H69.1074C70.2936 6.50522 75.928 11.4658 82.6744 11.4658H97.7983C97.9095 10.8645 97.9836 10.2256 97.9836 9.54918C97.9836 4.28801 93.7578 0.00390625 88.5683 0.00390625Z" fill="url(#paint0_linear_73_1030)"/>
<defs>
<linearGradient id="paint0_linear_73_1030" x1="69.0953" y1="5.73415" x2="97.9846" y2="5.73415" gradientUnits="userSpaceOnUse">
<stop stop-color="#00A8E4"/>
<stop offset="0.211" stop-color="#00A3E0"/>
<stop offset="0.555" stop-color="#0094D6"/>
<stop offset="0.9871" stop-color="#007EC6"/>
<stop offset="1" stop-color="#007EC5"/>
</linearGradient>
</defs>
</svg>
