<svg width="85" height="30" viewBox="0 0 85 30" fill="none" xmlns="http://www.w3.org/2000/svg">
<path d="M36.6447 28.7664H29.7695L34.0931 1.41968H40.9683L36.6447 28.7664Z" fill="#004586"/>
<path d="M23.9568 1.42053L17.3651 20.2123L16.5855 16.1907L14.2465 3.83348C14.2465 3.83348 13.963 1.34741 10.9861 1.34741H0.141756L0 1.85925C0 1.85925 3.33127 2.59045 7.22957 5.00339L13.2542 28.7673H20.4129L31.399 1.42053H23.9568Z" fill="#004586"/>
<path d="M78.178 28.7664H84.4862L78.9577 1.41968H73.4292C70.8776 1.41968 70.2397 3.46703 70.2397 3.46703L60.0332 28.7664H67.1919L68.6095 24.6717H77.3983L78.178 28.7664ZM70.594 19.0415L74.2088 8.80476L76.2643 19.0415H70.594Z" fill="#004586"/>
<path d="M60.5297 8.00068L61.522 2.15111C61.522 2.15111 58.4743 0.981201 55.2848 0.981201C51.8826 0.981201 43.7316 2.51671 43.7316 10.048C43.7316 17.1406 53.3002 17.2138 53.3002 20.9429C53.3002 24.672 44.7239 24.0139 41.8888 21.674L40.8965 27.8161C40.8965 27.8161 43.9442 29.3516 48.6931 29.3516C53.371 29.3516 60.5297 26.8655 60.5297 19.9923C60.5297 12.8997 50.8903 12.2416 50.8903 9.09748C50.8903 5.88021 57.6237 6.31893 60.5297 8.00068Z" fill="#004586"/>
<path d="M16.5855 16.1176L14.2465 3.83348C14.2465 3.83348 13.963 1.34741 10.9861 1.34741H0.141756L0 1.85925C0 1.85925 5.24498 2.95604 10.2065 7.19698C15.0262 11.1454 16.5855 16.1176 16.5855 16.1176Z" fill="#EE9B11"/>
</svg>
