<svg width="268" height="36" viewBox="0 0 268 36" fill="none" xmlns="http://www.w3.org/2000/svg">
<g opacity="0.8">
<path d="M36.6447 31.7664H29.7695L34.0931 4.41968H40.9683L36.6447 31.7664Z" fill="#004586"/>
<path d="M23.9568 4.42053L17.3651 23.2123L16.5855 19.1907L14.2465 6.83348C14.2465 6.83348 13.963 4.34741 10.9861 4.34741H0.141756L0 4.85925C0 4.85925 3.33127 5.59045 7.22957 8.00339L13.2542 31.7673H20.4129L31.399 4.42053H23.9568Z" fill="#004586"/>
<path d="M78.178 31.7664H84.4862L78.9577 4.41968H73.4292C70.8776 4.41968 70.2397 6.46703 70.2397 6.46703L60.0332 31.7664H67.1919L68.6095 27.6717H77.3983L78.178 31.7664ZM70.594 22.0415L74.2088 11.8048L76.2643 22.0415H70.594Z" fill="#004586"/>
<path d="M60.5297 11.0007L61.522 5.15111C61.522 5.15111 58.4743 3.9812 55.2848 3.9812C51.8826 3.9812 43.7316 5.51671 43.7316 13.048C43.7316 20.1406 53.3002 20.2138 53.3002 23.9429C53.3002 27.672 44.7239 27.0139 41.8888 24.674L40.8965 30.8161C40.8965 30.8161 43.9442 32.3516 48.6931 32.3516C53.371 32.3516 60.5297 29.8655 60.5297 22.9923C60.5297 15.8997 50.8903 15.2416 50.8903 12.0975C50.8903 8.88021 57.6237 9.31893 60.5297 11.0007Z" fill="#004586"/>
<path d="M16.5855 19.1176L14.2465 6.83348C14.2465 6.83348 13.963 4.34741 10.9861 4.34741H0.141756L0 4.85925C0 4.85925 5.24498 5.95604 10.2065 10.197C15.0262 14.1454 16.5855 19.1176 16.5855 19.1176Z" fill="#EE9B11"/>
<path d="M224.576 6.97271L218.386 20.5766H217.756V4.00391H208.934V32.0009H216.384C218.349 32.0009 220.128 30.8359 220.944 29.0321L227.134 15.4282H227.764V32.0009H236.549V4.00391H229.099C227.171 4.00391 225.392 5.16888 224.576 6.97271Z" fill="#20AA4D"/>
<path d="M191.585 7.68771L187.916 20.5776H187.286L183.616 7.68771C182.986 5.50808 181.021 4.00488 178.797 4.00488H170.012V32.0019H178.797V15.4667H179.427L184.468 32.0019H190.733L195.774 15.4292H196.404V32.0019H205.19V4.00488H196.404C194.18 4.00488 192.179 5.50808 191.585 7.68771Z" fill="#20AA4D"/>
<path d="M240.367 16.7432V32.0382H249.152V23.0942H258.605C262.719 23.0942 266.167 20.426 267.464 16.7432H240.367Z" fill="#20AA4D"/>
<path d="M258.568 4.00391H239.107C240.294 10.5052 245.928 15.4658 252.674 15.4658H267.798C267.909 14.8645 267.984 14.2256 267.984 13.5492C267.984 8.28801 263.758 4.00391 258.568 4.00391Z" fill="url(#paint0_linear_73_1022)"/>
<path d="M112.773 35.8015V33.4176C112.812 32.623 112.265 31.9476 111.484 31.9078C111.406 31.9078 111.367 31.9078 111.289 31.9078C110.781 31.8681 110.273 32.1462 109.96 32.5833C109.686 32.1462 109.218 31.8681 108.71 31.9078C108.28 31.8681 107.85 32.1065 107.615 32.4641V31.9873H106.834V35.8015H107.655V33.6957C107.576 33.219 107.928 32.7422 108.397 32.7025C108.436 32.7025 108.514 32.7025 108.553 32.7025C109.1 32.7025 109.374 33.06 109.374 33.6957V35.8015H110.194V33.6957C110.116 33.219 110.468 32.7422 110.937 32.7025C110.976 32.7025 111.054 32.7025 111.093 32.7025C111.64 32.7025 111.914 33.06 111.914 33.6957V35.8015H112.773ZM124.926 32.027H123.597V30.8748H122.776V32.027H122.034V32.7819H122.776V34.5301C122.776 35.4042 123.128 35.9207 124.066 35.9207C124.418 35.9207 124.769 35.8015 125.082 35.6425L124.847 34.9274C124.613 35.0466 124.379 35.126 124.144 35.126C123.753 35.126 123.597 34.8877 123.597 34.4904V32.7422H124.926V32.027ZM131.842 31.9078C131.451 31.9078 131.06 32.1065 130.865 32.4641V31.9873H130.044V35.8015H130.865V33.656C130.865 33.0203 131.139 32.6627 131.646 32.6627C131.803 32.6627 131.998 32.7025 132.154 32.7422L132.389 31.9476C132.233 31.9476 132.037 31.9078 131.842 31.9078ZM121.37 32.3052C120.901 32.027 120.393 31.9078 119.846 31.9078C118.908 31.9078 118.283 32.3846 118.283 33.1395C118.283 33.7752 118.752 34.1328 119.572 34.252L119.963 34.2917C120.393 34.3712 120.627 34.4904 120.627 34.689C120.627 34.9671 120.315 35.1658 119.768 35.1658C119.338 35.1658 118.869 35.0466 118.517 34.7685L118.127 35.4042C118.595 35.722 119.182 35.9207 119.729 35.8809C120.823 35.8809 121.448 35.3644 121.448 34.6493C121.448 33.9341 120.94 33.6163 120.158 33.4971L119.768 33.4573C119.416 33.4176 119.143 33.3382 119.143 33.0998C119.143 32.8614 119.416 32.6627 119.846 32.6627C120.276 32.6627 120.666 32.7819 121.018 32.9806L121.37 32.3052ZM143.134 31.9078C142.744 31.9078 142.353 32.1065 142.158 32.4641V31.9873H141.337V35.8015H142.158V33.656C142.158 33.0203 142.431 32.6627 142.939 32.6627C143.095 32.6627 143.291 32.7025 143.447 32.7422L143.682 31.9476C143.525 31.9476 143.33 31.9078 143.134 31.9078ZM132.662 33.8944C132.623 34.9671 133.444 35.8412 134.46 35.8809C134.538 35.8809 134.577 35.8809 134.655 35.8809C135.124 35.9207 135.632 35.7617 135.984 35.4439L135.593 34.7685C135.32 34.9671 134.968 35.0863 134.616 35.126C133.952 35.0863 133.483 34.4903 133.522 33.8149C133.561 33.219 134.03 32.7422 134.616 32.7025C134.968 32.7025 135.32 32.8217 135.593 33.06L135.984 32.3846C135.593 32.0668 135.124 31.9078 134.655 31.9476C133.6 31.8681 132.741 32.7025 132.662 33.7355C132.662 33.7752 132.662 33.8149 132.662 33.8944ZM140.282 33.8944V31.9873H139.461V32.4641C139.188 32.1065 138.758 31.9078 138.289 31.9078C137.195 31.9078 136.335 32.7819 136.335 33.8944C136.335 35.0069 137.195 35.8809 138.289 35.8809C138.758 35.8809 139.188 35.6823 139.461 35.3247V35.8015H140.282V33.8944ZM137.234 33.8944C137.273 33.2587 137.82 32.7819 138.445 32.8217C139.071 32.8614 139.54 33.4176 139.501 34.0533C139.461 34.6493 138.993 35.126 138.367 35.126C137.742 35.126 137.234 34.6493 137.234 34.0136C137.234 33.9738 137.234 33.9341 137.234 33.8944ZM127.426 31.9078C126.332 31.9078 125.473 32.8217 125.512 33.9341C125.551 35.0466 126.41 35.9207 127.505 35.8809C128.052 35.9207 128.638 35.722 129.068 35.3644L128.677 34.7685C128.364 35.0068 127.973 35.1658 127.583 35.1658C127.036 35.2055 126.528 34.8082 126.45 34.252H129.224C129.224 34.1328 129.224 34.0533 129.224 33.9341C129.224 32.7025 128.481 31.9078 127.426 31.9078ZM127.426 32.6627C127.934 32.6627 128.364 33.06 128.364 33.5765H126.41C126.45 33.06 126.918 32.623 127.426 32.6627ZM147.784 33.8944V30.4775H147.003V32.4641C146.729 32.1065 146.3 31.9078 145.831 31.9078C144.737 31.9078 143.877 32.7819 143.877 33.8944C143.877 35.0069 144.737 35.8809 145.831 35.8809C146.3 35.8809 146.729 35.6823 147.003 35.3247V35.8015H147.784V33.8944ZM149.152 35.2452C149.191 35.2452 149.269 35.2452 149.308 35.285C149.347 35.285 149.386 35.3247 149.426 35.3644C149.465 35.4042 149.504 35.4439 149.504 35.4836C149.543 35.5631 149.543 35.6823 149.504 35.7617C149.465 35.8015 149.465 35.8412 149.426 35.8809C149.386 35.9207 149.347 35.9604 149.308 35.9604C149.269 36.0001 149.23 36.0001 149.152 36.0001C148.996 36.0001 148.878 35.9207 148.8 35.7617C148.761 35.6823 148.761 35.5631 148.8 35.4836C148.839 35.4439 148.839 35.4042 148.878 35.3644C148.918 35.3247 148.957 35.285 148.996 35.285C149.074 35.2452 149.113 35.2452 149.152 35.2452ZM149.152 35.9207C149.191 35.9207 149.23 35.9207 149.269 35.8809C149.308 35.8809 149.347 35.8412 149.347 35.8015C149.465 35.6823 149.465 35.5233 149.347 35.4042C149.308 35.3644 149.308 35.3644 149.269 35.3247C149.23 35.3247 149.191 35.285 149.152 35.285C149.113 35.285 149.074 35.285 149.035 35.3247C148.996 35.3247 148.957 35.3644 148.957 35.4042C148.839 35.5233 148.839 35.6823 148.957 35.8015C148.996 35.8412 149.035 35.8412 149.035 35.8809C149.074 35.9207 149.113 35.9207 149.152 35.9207ZM149.191 35.4439C149.23 35.4439 149.269 35.4439 149.308 35.4836C149.347 35.5234 149.347 35.5233 149.347 35.5631C149.347 35.6028 149.347 35.6028 149.308 35.6425C149.269 35.6823 149.269 35.6823 149.23 35.6823L149.347 35.8015H149.269L149.152 35.6823H149.113V35.8015H149.035V35.4439H149.191ZM149.113 35.5234V35.6028H149.191H149.23V35.5631V35.5234H149.191H149.113ZM144.815 33.8944C144.854 33.2587 145.401 32.7819 146.026 32.8217C146.651 32.8614 147.12 33.4176 147.081 34.0533C147.042 34.6493 146.573 35.126 145.948 35.126C145.323 35.126 144.815 34.6493 144.815 34.0136C144.776 33.9738 144.815 33.9341 144.815 33.8944ZM117.345 33.8944V31.9873H116.525V32.4641C116.251 32.1065 115.821 31.9078 115.352 31.9078C114.258 31.9078 113.399 32.7819 113.399 33.8944C113.399 35.0069 114.258 35.8809 115.352 35.8809C115.821 35.8809 116.251 35.6823 116.525 35.3247V35.8015H117.345V33.8944ZM114.336 33.8944C114.375 33.2587 114.922 32.7819 115.548 32.8217C116.173 32.8614 116.642 33.4176 116.603 34.0533C116.564 34.6493 116.095 35.126 115.47 35.126C114.844 35.126 114.336 34.6493 114.336 34.0136C114.336 33.9738 114.336 33.9341 114.336 33.8944Z" fill="#231F20"/>
<path d="M133.405 3.0625H121.097V25.5501H133.405V3.0625Z" fill="#FF5F00"/>
<path d="M121.878 14.3064C121.878 9.93601 123.871 5.76427 127.27 3.06258C121.135 -1.82431 112.305 -0.751578 107.498 5.48616C102.692 11.7239 103.747 20.6633 109.882 25.5502C115.001 29.6425 122.151 29.6425 127.27 25.5502C123.871 22.8485 121.878 18.7165 121.878 14.3064Z" fill="#EB001B"/>
<path d="M150.012 14.3064C150.012 22.2128 143.721 28.6095 135.945 28.6095C132.78 28.6095 129.732 27.5368 127.271 25.5502C133.366 20.6633 134.421 11.6842 129.615 5.48616C128.912 4.57235 128.13 3.77773 127.231 3.06258C133.327 -1.82431 142.197 -0.751578 147.003 5.48616C148.957 7.9892 150.012 11.0882 150.012 14.3064Z" fill="#F79E1B"/>
<path d="M148.684 23.1676V22.6908H148.879V22.6113H148.41V22.6908H148.605V23.1676H148.684ZM149.582 23.1676V22.6113H149.426L149.27 23.0086L149.113 22.6113H148.996V23.1676H149.113V22.7703L149.27 23.1278H149.387L149.543 22.7703V23.2073L149.582 23.1676Z" fill="#F79E1B"/>
</g>
<defs>
<linearGradient id="paint0_linear_73_1022" x1="239.095" y1="9.73415" x2="267.985" y2="9.73415" gradientUnits="userSpaceOnUse">
<stop stop-color="#00A8E4"/>
<stop offset="0.211" stop-color="#00A3E0"/>
<stop offset="0.555" stop-color="#0094D6"/>
<stop offset="0.9871" stop-color="#007EC6"/>
<stop offset="1" stop-color="#007EC5"/>
</linearGradient>
</defs>
</svg>
