<svg width="47" height="36" viewBox="0 0 47 36" fill="none" xmlns="http://www.w3.org/2000/svg">
<path d="M8.77335 35.8015V33.4176C8.81243 32.623 8.26538 31.9476 7.48388 31.9078C7.40573 31.9078 7.36666 31.9078 7.28851 31.9078C6.78054 31.8681 6.27257 32.1462 5.95997 32.5833C5.68644 32.1462 5.21755 31.8681 4.70957 31.9078C4.27975 31.8681 3.84993 32.1065 3.61548 32.4641V31.9873H2.83398V35.8015H3.65456V33.6957C3.57641 33.219 3.92808 32.7422 4.39698 32.7025C4.43605 32.7025 4.5142 32.7025 4.55327 32.7025C5.10032 32.7025 5.37385 33.06 5.37385 33.6957V35.8015H6.19442V33.6957C6.11627 33.219 6.46794 32.7422 6.93684 32.7025C6.97591 32.7025 7.05406 32.7025 7.09314 32.7025C7.64018 32.7025 7.91371 33.06 7.91371 33.6957V35.8015H8.77335ZM20.9256 32.027H19.5971V30.8748H18.7765V32.027H18.0341V32.7819H18.7765V34.5301C18.7765 35.4042 19.1282 35.9207 20.066 35.9207C20.4176 35.9207 20.7693 35.8015 21.0819 35.6425L20.8475 34.9274C20.613 35.0466 20.3786 35.126 20.1441 35.126C19.7534 35.126 19.5971 34.8877 19.5971 34.4904V32.7422H20.9256V32.027ZM27.8419 31.9078C27.4511 31.9078 27.0604 32.1065 26.865 32.4641V31.9873H26.0444V35.8015H26.865V33.656C26.865 33.0203 27.1385 32.6627 27.6465 32.6627C27.8028 32.6627 27.9981 32.7025 28.1544 32.7422L28.3889 31.9476C28.2326 31.9476 28.0372 31.9078 27.8419 31.9078ZM17.3698 32.3052C16.9009 32.027 16.3929 31.9078 15.8459 31.9078C14.9081 31.9078 14.2829 32.3846 14.2829 33.1395C14.2829 33.7752 14.7518 34.1328 15.5724 34.252L15.9631 34.2917C16.3929 34.3712 16.6274 34.4904 16.6274 34.689C16.6274 34.9671 16.3148 35.1658 15.7677 35.1658C15.3379 35.1658 14.869 35.0466 14.5173 34.7685L14.1266 35.4042C14.5955 35.722 15.1816 35.9207 15.7287 35.8809C16.8228 35.8809 17.448 35.3644 17.448 34.6493C17.448 33.9341 16.94 33.6163 16.1585 33.4971L15.7677 33.4573C15.4161 33.4176 15.1425 33.3382 15.1425 33.0998C15.1425 32.8614 15.4161 32.6627 15.8459 32.6627C16.2757 32.6627 16.6665 32.7819 17.0181 32.9806L17.3698 32.3052ZM39.1345 31.9078C38.7437 31.9078 38.353 32.1065 38.1576 32.4641V31.9873H37.337V35.8015H38.1576V33.656C38.1576 33.0203 38.4311 32.6627 38.9391 32.6627C39.0954 32.6627 39.2908 32.7025 39.4471 32.7422L39.6815 31.9476C39.5252 31.9476 39.3298 31.9078 39.1345 31.9078ZM28.6624 33.8944C28.6233 34.9671 29.4439 35.8412 30.4599 35.8809C30.538 35.8809 30.5771 35.8809 30.6552 35.8809C31.1241 35.9207 31.6321 35.7617 31.9838 35.4439L31.593 34.7685C31.3195 34.9671 30.9678 35.0863 30.6162 35.126C29.9519 35.0863 29.483 34.4903 29.5221 33.8149C29.5611 33.219 30.03 32.7422 30.6162 32.7025C30.9678 32.7025 31.3195 32.8217 31.593 33.06L31.9838 32.3846C31.593 32.0668 31.1241 31.9078 30.6552 31.9476C29.6002 31.8681 28.7406 32.7025 28.6624 33.7355C28.6624 33.7752 28.6624 33.8149 28.6624 33.8944ZM36.282 33.8944V31.9873H35.4614V32.4641C35.1879 32.1065 34.7581 31.9078 34.2892 31.9078C33.1951 31.9078 32.3355 32.7819 32.3355 33.8944C32.3355 35.0069 33.1951 35.8809 34.2892 35.8809C34.7581 35.8809 35.1879 35.6823 35.4614 35.3247V35.8015H36.282V33.8944ZM33.2342 33.8944C33.2732 33.2587 33.8203 32.7819 34.4455 32.8217C35.0707 32.8614 35.5396 33.4176 35.5005 34.0533C35.4614 34.6493 34.9925 35.126 34.3673 35.126C33.7421 35.126 33.2342 34.6493 33.2342 34.0136C33.2342 33.9738 33.2342 33.9341 33.2342 33.8944ZM23.4264 31.9078C22.3323 31.9078 21.4727 32.8217 21.5117 33.9341C21.5508 35.0466 22.4105 35.9207 23.5045 35.8809C24.0516 35.9207 24.6377 35.722 25.0675 35.3644L24.6768 34.7685C24.3642 35.0068 23.9734 35.1658 23.5827 35.1658C23.0357 35.2055 22.5277 34.8082 22.4495 34.252H25.2238C25.2238 34.1328 25.2238 34.0533 25.2238 33.9341C25.2238 32.7025 24.4814 31.9078 23.4264 31.9078ZM23.4264 32.6627C23.9344 32.6627 24.3642 33.06 24.3642 33.5765H22.4105C22.4495 33.06 22.9184 32.623 23.4264 32.6627ZM43.7844 33.8944V30.4775H43.0029V32.4641C42.7293 32.1065 42.2995 31.9078 41.8306 31.9078C40.7365 31.9078 39.8769 32.7819 39.8769 33.8944C39.8769 35.0069 40.7365 35.8809 41.8306 35.8809C42.2995 35.8809 42.7293 35.6823 43.0029 35.3247V35.8015H43.7844V33.8944ZM45.152 35.2452C45.1911 35.2452 45.2692 35.2452 45.3083 35.285C45.3474 35.285 45.3864 35.3247 45.4255 35.3644C45.4646 35.4042 45.5037 35.4439 45.5037 35.4836C45.5427 35.5631 45.5427 35.6823 45.5037 35.7617C45.4646 35.8015 45.4646 35.8412 45.4255 35.8809C45.3864 35.9207 45.3474 35.9604 45.3083 35.9604C45.2692 36.0001 45.2301 36.0001 45.152 36.0001C44.9957 36.0001 44.8785 35.9207 44.8003 35.7617C44.7612 35.6823 44.7612 35.5631 44.8003 35.4836C44.8394 35.4439 44.8394 35.4042 44.8785 35.3644C44.9175 35.3247 44.9566 35.285 44.9957 35.285C45.0738 35.2452 45.1129 35.2452 45.152 35.2452ZM45.152 35.9207C45.1911 35.9207 45.2301 35.9207 45.2692 35.8809C45.3083 35.8809 45.3474 35.8412 45.3474 35.8015C45.4646 35.6823 45.4646 35.5233 45.3474 35.4042C45.3083 35.3644 45.3083 35.3644 45.2692 35.3247C45.2301 35.3247 45.1911 35.285 45.152 35.285C45.1129 35.285 45.0738 35.285 45.0348 35.3247C44.9957 35.3247 44.9566 35.3644 44.9566 35.4042C44.8394 35.5233 44.8394 35.6823 44.9566 35.8015C44.9957 35.8412 45.0348 35.8412 45.0348 35.8809C45.0738 35.9207 45.1129 35.9207 45.152 35.9207ZM45.1911 35.4439C45.2301 35.4439 45.2692 35.4439 45.3083 35.4836C45.3474 35.5234 45.3474 35.5233 45.3474 35.5631C45.3474 35.6028 45.3474 35.6028 45.3083 35.6425C45.2692 35.6823 45.2692 35.6823 45.2301 35.6823L45.3474 35.8015H45.2692L45.152 35.6823H45.1129V35.8015H45.0348V35.4439H45.1911ZM45.1129 35.5234V35.6028H45.1911H45.2301V35.5631V35.5234H45.1911H45.1129ZM40.8147 33.8944C40.8538 33.2587 41.4008 32.7819 42.026 32.8217C42.6512 32.8614 43.1201 33.4176 43.081 34.0533C43.0419 34.6493 42.573 35.126 41.9478 35.126C41.3227 35.126 40.8147 34.6493 40.8147 34.0136C40.7756 33.9738 40.8147 33.9341 40.8147 33.8944ZM13.3451 33.8944V31.9873H12.5245V32.4641C12.251 32.1065 11.8212 31.9078 11.3523 31.9078C10.2582 31.9078 9.39855 32.7819 9.39855 33.8944C9.39855 35.0069 10.2582 35.8809 11.3523 35.8809C11.8212 35.8809 12.251 35.6823 12.5245 35.3247V35.8015H13.3451V33.8944ZM10.3363 33.8944C10.3754 33.2587 10.9225 32.7819 11.5477 32.8217C12.1729 32.8614 12.6418 33.4176 12.6027 34.0533C12.5636 34.6493 12.0947 35.126 11.4695 35.126C10.8443 35.126 10.3363 34.6493 10.3363 34.0136C10.3363 33.9738 10.3363 33.9341 10.3363 33.8944Z" fill="#231F20"/>
<path d="M29.4052 3.0625H17.0967V25.5501H29.4052V3.0625Z" fill="#FF5F00"/>
<path d="M17.8779 14.3064C17.8779 9.93601 19.8707 5.76427 23.2702 3.06258C17.1354 -1.82431 8.30454 -0.751578 3.49834 5.48616C-1.30786 11.7239 -0.252841 20.6633 5.8819 25.5502C11.0007 29.6425 18.1514 29.6425 23.2702 25.5502C19.8707 22.8485 17.8779 18.7165 17.8779 14.3064Z" fill="#EB001B"/>
<path d="M46.0121 14.3064C46.0121 22.2128 39.721 28.6095 31.9451 28.6095C28.7801 28.6095 25.7322 27.5368 23.2705 25.5502C29.3662 20.6633 30.4212 11.6842 25.615 5.48616C24.9117 4.57235 24.1302 3.77773 23.2314 3.06258C29.3271 -1.82431 38.1971 -0.751578 43.0033 5.48616C44.957 7.9892 46.0121 11.0882 46.0121 14.3064Z" fill="#F79E1B"/>
<path d="M44.6836 23.1676V22.6908H44.8789V22.6113H44.4102V22.6908H44.6055V23.1676H44.6836ZM45.5821 23.1676V22.6113H45.4259L45.2696 23.0086L45.1133 22.6113H44.9961V23.1676H45.1133V22.7703L45.2696 23.1278H45.3868L45.5431 22.7703V23.2073L45.5821 23.1676Z" fill="#F79E1B"/>
</svg>
