<svg width="24" height="25" viewBox="0 0 24 25" fill="none" xmlns="http://www.w3.org/2000/svg">
<path d="M12 4.49843L11.1518 5.02804L11.9993 6.3855L12.8478 5.02867L12 4.49843ZM12 23.9929L11.36 24.7613C11.7002 25.0446 12.1861 25.0706 12.5545 24.8251L12 23.9929ZM12.8478 5.02867C13.8348 3.45054 16.109 2.61077 18.1803 3.16208C19.1849 3.42946 20.1206 4.02268 20.8135 5.01279C21.5088 6.00634 22 7.45924 22 9.50203H24C24 7.13756 23.4287 5.26169 22.4521 3.8661C21.4731 2.46706 20.1276 1.61075 18.6947 1.22937C15.891 0.483136 12.6652 1.54882 11.1522 3.96819L12.8478 5.02867ZM22 9.50203C22 11.4673 21.1674 13.6844 19.4007 16.0344C17.6368 18.3807 14.9804 20.8056 11.4455 23.1607L12.5545 24.8251C16.2196 22.3833 19.0632 19.8117 20.9993 17.2362C22.9326 14.6646 24 12.0347 24 9.50203H22ZM12.64 23.2245C11.0721 21.9188 8.42144 19.9998 6.09979 17.5574C3.76864 15.1051 2 12.35 2 9.50203H0C0 13.1497 2.23136 16.3908 4.65021 18.9354C7.07856 21.49 9.9279 23.5686 11.36 24.7613L12.64 23.2245ZM2 9.50203C2 7.46124 2.49115 6.00874 3.18654 5.01486C3.87958 4.02434 4.81561 3.43029 5.82035 3.16215C7.89167 2.60937 10.165 3.4476 11.1518 5.02804L12.8482 3.96882C11.335 1.54517 8.10833 0.481558 5.30465 1.22978C3.87189 1.61214 2.52667 2.4693 1.54783 3.86829C0.571352 5.2639 0 7.13918 0 9.50203H2Z" fill="#969696"/>
</svg>
