<svg width="25" height="14" viewBox="0 0 25 14" fill="none" xmlns="http://www.w3.org/2000/svg">
<path fill-rule="evenodd" clip-rule="evenodd" d="M11.9779 13.819H13.4654C13.4654 13.819 13.9029 13.7315 14.1654 13.5566C14.3404 13.2942 14.3404 12.9443 14.3404 12.9443C14.3404 12.9443 14.3404 11.0202 15.2154 10.6703C16.0904 10.408 17.2279 12.5945 18.453 13.3817C19.4155 13.9939 20.1155 13.9064 20.1155 13.9064L23.353 13.819C23.353 13.819 25.103 13.7315 24.228 12.3321C24.1405 12.2447 23.7905 11.37 21.778 9.53334C19.7655 7.60918 20.028 7.95902 22.478 4.63548C23.9655 2.62385 24.578 1.39939 24.403 0.874618C24.228 0.349847 23.0905 0.524771 23.0905 0.524771H19.4155C19.4155 0.524771 19.153 0.52477 18.978 0.612232C18.803 0.699694 18.628 1.04954 18.628 1.04954C18.628 1.04954 18.0155 2.62385 17.2279 3.93578C15.5654 6.73456 14.9529 6.90948 14.6904 6.73456C14.0779 6.29725 14.2529 5.07278 14.2529 4.28563C14.2529 1.57431 14.6904 0.437308 13.4654 0.174923C13.0279 0.0874608 12.7654 0 11.7154 0C10.4029 0 9.26537 -3.38853e-07 8.65286 0.349847C8.21536 0.524771 7.95286 1.04954 8.12786 1.04954C8.39036 1.04954 8.91537 1.22446 9.17787 1.57431C9.52787 2.09908 9.52787 3.23609 9.52787 3.23609C9.52787 3.23609 9.70287 6.38471 9.00286 6.82202C8.47786 7.08441 7.86535 6.55964 6.37784 4.02324C5.59033 2.71132 5.06533 1.31193 5.06533 1.31193C5.06533 1.31193 4.97783 1.04954 4.80282 0.874618C4.54032 0.699695 4.27782 0.612232 4.27782 0.612232H0.777785C0.777785 0.612232 0.25278 0.612233 0.0777785 0.874618C-0.0972232 1.04954 0.0777785 1.48685 0.0777785 1.48685C0.0777785 1.48685 2.7903 7.87156 5.94034 11.1076C8.74036 14.0814 11.9779 13.819 11.9779 13.819Z" fill="white"/>
</svg>
